<?xml version="1.0" standalone="no"?><!-- Generator: Gravit.io --><svg xmlns="http://www.w3.org/2000/svg" xmlns:xlink="http://www.w3.org/1999/xlink" style="isolation:isolate" viewBox="0 0 1280 800" width="1280" height="800"><defs><clipPath id="_clipPath_ZIV3m0z2ONGnev8bBbIxPEWHW0aDg6ja"><rect width="1280" height="800"/></clipPath></defs><g clip-path="url(#_clipPath_ZIV3m0z2ONGnev8bBbIxPEWHW0aDg6ja)"><rect x="0" y="0" width="1280" height="394" transform="matrix(1,0,0,1,0,0)" fill="rgb(255,255,255)"/><clipPath id="_clipPath_kj1fB2pQOO0ASNHki617HBZm38W8EPpm"><rect x="0" y="0" width="1280" height="394" transform="matrix(1,0,0,1,0,0)" fill="rgb(255,255,255)"/></clipPath><g clip-path="url(#_clipPath_kj1fB2pQOO0ASNHki617HBZm38W8EPpm)"><path d=" M -28 169 C 20.484 211.533 -23.16 228.157 -6 250 C 45.63 315.722 37.183 178.396 74 90 C 110.817 1.604 239.769 -8.556 326 27 C 412.231 62.556 553.975 117.73 682 51.647 C 810.025 -14.436 828.27 28.539 904 61 C 979.73 93.461 1087.519 181.253 1250 61 C 1412.481 -59.253 1329.652 26.575 1370 -0.51 L 1260 -94.392 L -12 -97 L -36 109.02 L -28 169 Z " fill="rgb(255,192,6)"/></g></g></svg>