<?xml version="1.0" standalone="no"?><!-- Generator: Gravit.io --><svg xmlns="http://www.w3.org/2000/svg" xmlns:xlink="http://www.w3.org/1999/xlink" style="isolation:isolate" viewBox="-19 -13 832 835" width="832" height="835"><g id="Group"><g id="Group"><defs><filter id="dHKk8fslASxu1PHJIVPAJROOg8N9uVAD" x="-200%" y="-200%" width="400%" height="400%"><feOffset xmlns="http://www.w3.org/2000/svg" in="SourceAlpha" result="offOut" dx="-3" dy="3"/><feGaussianBlur xmlns="http://www.w3.org/2000/svg" in="offOut" result="blurOut" stdDeviation="8"/><feComponentTransfer xmlns="http://www.w3.org/2000/svg" in="blurOut" result="opacOut"><feFuncA xmlns="http://www.w3.org/2000/svg" type="table" tableValues="0 0.5"/></feComponentTransfer><feBlend xmlns="http://www.w3.org/2000/svg" in="SourceGraphic" in2="opacOut" mode="normal"/></filter></defs><g opacity="0.76" filter="url(#dHKk8fslASxu1PHJIVPAJROOg8N9uVAD)"><path d=" M 1.355 0 Q -16.403 193.995 198.576 421.919 L 800 803 L 800 0 L 1.355 0 Z " fill="rgb(151,151,151)" fill-opacity="0.26"/></g><defs><filter id="Tn423Sc29vbJYG8kgZmbl4adOYhd6r9e" x="-200%" y="-200%" width="400%" height="400%"><feOffset xmlns="http://www.w3.org/2000/svg" in="SourceAlpha" result="offOut" dx="-3" dy="3"/><feGaussianBlur xmlns="http://www.w3.org/2000/svg" in="offOut" result="blurOut" stdDeviation="8"/><feComponentTransfer xmlns="http://www.w3.org/2000/svg" in="blurOut" result="opacOut"><feFuncA xmlns="http://www.w3.org/2000/svg" type="table" tableValues="0 0.5"/></feComponentTransfer><feBlend xmlns="http://www.w3.org/2000/svg" in="SourceGraphic" in2="opacOut" mode="normal"/></filter></defs><g filter="url(#Tn423Sc29vbJYG8kgZmbl4adOYhd6r9e)"><linearGradient id="_lgradient_1" x1="0.6452783542567009%" y1="106.13756109731341%" x2="93.24102110479811%" y2="16.661381961691546%"><stop offset="1.7391304347826086%" stop-opacity="1" style="stop-color:rgb(241,15,15)"/><stop offset="20.994954424072997%" stop-opacity="1" style="stop-color:rgb(247,98,23)"/><stop offset="42.95836754707582%" stop-opacity="1" style="stop-color:rgb(252,163,29)"/><stop offset="97.82608695652173%" stop-opacity="1" style="stop-color:rgb(255,199,32)"/></linearGradient><path d=" M 649.59 629 L 226.562 359 Q 131.385 258.092 89.821 165 L 51.633 165 C 47.607 165 44.338 162.536 44.338 159.5 C 44.338 156.464 47.607 154 51.633 154 L 85.086 154 Q 83.217 149.491 81.475 145 L 45.107 145 C 39.625 145 35.174 140.549 35.174 135.066 L 35.174 134.537 C 35.174 129.055 39.625 124.603 45.107 124.603 L 74.189 124.603 Q 53.225 60.371 58.752 0 L 800 0 L 800 725 L 681.547 649.397 L 631.863 649.397 C 626.38 649.397 621.929 644.945 621.929 639.463 L 621.929 638.934 C 621.929 633.451 626.38 629 631.863 629 L 649.59 629 Z " fill="url(#_lgradient_1)"/></g></g><path d="M 70.779 184 L 141.221 184 C 144.41 184 147 186.464 147 189.5 L 147 189.5 C 147 192.536 144.41 195 141.221 195 L 70.779 195 C 67.59 195 65 192.536 65 189.5 L 65 189.5 C 65 186.464 67.59 184 70.779 184 Z" style="stroke:none;fill:#FFFFFF;stroke-miterlimit:10;"/><path d="M 616.659 655 L 745.341 655 C 749.568 655 753 657.464 753 660.5 L 753 660.5 C 753 663.536 749.568 666 745.341 666 L 616.659 666 C 612.432 666 609 663.536 609 660.5 L 609 660.5 C 609 657.464 612.432 655 616.659 655 Z" style="stroke:none;fill:#FFFFFF;stroke-miterlimit:10;"/></g></svg>