<?xml version="1.0" standalone="no"?><!-- Generator: Gravit.io --><svg xmlns="http://www.w3.org/2000/svg" xmlns:xlink="http://www.w3.org/1999/xlink" style="isolation:isolate" viewBox="82.5 142 414 223.5" width="414" height="223.5"><g id="Group"><g id="Group"><rect x="395.5" y="299.59" width="19" height="19" transform="matrix(1,0,0,1,0,0)" fill="rgb(235,235,235)" vector-effect="non-scaling-stroke" stroke-width="2" stroke="rgb(89,88,88)" stroke-linejoin="miter" stroke-linecap="square" stroke-miterlimit="3"/><path d=" M 360.5 265.5 Q 346.5 328.41 371.5 327.5 Q 402.72 326.364 404.5 309.59" fill="none" vector-effect="non-scaling-stroke" stroke-width="2" stroke="rgb(89,88,88)" stroke-linejoin="miter" stroke-linecap="square" stroke-miterlimit="3"/><rect x="401.5" y="306.59" width="6" height="6" transform="matrix(1,0,0,1,0,0)" fill="rgb(235,235,235)" vector-effect="non-scaling-stroke" stroke-width="2" stroke="rgb(89,88,88)" stroke-linejoin="miter" stroke-linecap="square" stroke-miterlimit="3"/></g><path d="M 90.415 250.5 L 488.585 250.5 C 491.298 250.5 493.5 252.702 493.5 255.415 L 493.5 256.585 C 493.5 259.298 491.298 261.5 488.585 261.5 L 90.415 261.5 C 87.702 261.5 85.5 259.298 85.5 256.585 L 85.5 255.415 C 85.5 252.702 87.702 250.5 90.415 250.5 Z" style="stroke:none;fill:#D7834C;stroke-miterlimit:10;"/><path d="M 90.415 250.5 L 488.585 250.5 C 491.298 250.5 493.5 252.702 493.5 255.415 L 493.5 256.585 C 493.5 259.298 491.298 261.5 488.585 261.5 L 90.415 261.5 C 87.702 261.5 85.5 259.298 85.5 256.585 L 85.5 255.415 C 85.5 252.702 87.702 250.5 90.415 250.5 Z" style="fill:none;stroke:#595858;stroke-width:2;stroke-linecap:square;stroke-miterlimit:3;"/><path d=" M 116 277.659 L 116 261.5 L 216.5 261.5 L 437.5 261.5 L 463 261.5 L 463 277.659 L 463 362.5 L 437.5 362.5 L 437.5 277.659 L 216.5 277.659 L 216.5 362.5 L 116 362.5 L 116 277.659 Z " fill="rgb(234,151,96)" vector-effect="non-scaling-stroke" stroke-width="2" stroke="rgb(89,88,88)" stroke-linejoin="miter" stroke-linecap="square" stroke-miterlimit="3"/><g id="Group"><path d=" M 345.336 244.471 L 345.336 244.471 L 338.639 244.471 C 334.994 244.471 332.035 247.173 332.035 250.5 L 386.292 250.5 C 386.292 247.173 383.591 244.471 380.263 244.471 L 372.991 244.471 C 366.706 244.471 361.604 239.369 361.604 233.084 L 356.723 233.084 C 356.723 239.369 351.621 244.471 345.336 244.471 Z " fill="rgb(235,235,235)" vector-effect="non-scaling-stroke" stroke-width="2" stroke="rgb(89,88,88)" stroke-linejoin="miter" stroke-linecap="square" stroke-miterlimit="3"/><path d="M 295.167 145 L 423.16 145 C 426.288 145 428.827 147.539 428.827 150.667 L 428.827 230.004 C 428.827 234.846 424.896 238.778 420.053 238.778 L 298.277 238.778 C 293.433 238.778 289.5 234.845 289.5 230.001 L 289.5 150.667 C 289.5 147.539 292.039 145 295.167 145 Z" style="stroke:none;fill:#EBEBEB;stroke-linecap:square;stroke-miterlimit:3;"/><path d="M 295.167 145 L 423.16 145 C 426.288 145 428.827 147.539 428.827 150.667 L 428.827 230.004 C 428.827 234.846 424.896 238.778 420.053 238.778 L 298.277 238.778 C 293.433 238.778 289.5 234.845 289.5 230.001 L 289.5 150.667 C 289.5 147.539 292.039 145 295.167 145 Z" style="fill:none;stroke:#595858;stroke-width:2;stroke-linecap:square;stroke-miterlimit:3;"/><path d="M 294.768 145 L 423.559 145 C 426.466 145 428.827 147.361 428.827 150.268 L 428.827 226.051 L 289.5 226.051 L 289.5 150.268 C 289.5 147.361 291.861 145 294.768 145 Z" style="stroke:none;fill:#EBEBEB;stroke-linecap:square;stroke-miterlimit:3;"/><path d="M 294.768 145 L 423.559 145 C 426.466 145 428.827 147.361 428.827 150.268 L 428.827 226.051 L 289.5 226.051 L 289.5 150.268 C 289.5 147.361 291.861 145 294.768 145 Z" style="fill:none;stroke:#595858;stroke-width:2;stroke-linecap:square;stroke-miterlimit:3;"/><rect x="296.198" y="150.445" width="125.93" height="70.161" transform="matrix(1,0,0,1,0,0)" fill="rgb(108,108,108)" vector-effect="non-scaling-stroke" stroke-width="2" stroke="rgb(89,88,88)" stroke-linejoin="miter" stroke-linecap="square" stroke-miterlimit="3"/><clipPath id="_clipPath_mIRO6sLaAvwp6p1aimdclE3PHWQHqZLw"><rect x="296.198" y="150.445" width="125.93" height="70.161" transform="matrix(1,0,0,1,0,0)" fill="rgb(108,108,108)" vector-effect="non-scaling-stroke" stroke-width="2" stroke="rgb(89,88,88)" stroke-linejoin="miter" stroke-linecap="square" stroke-miterlimit="3"/></clipPath><g clip-path="url(#_clipPath_mIRO6sLaAvwp6p1aimdclE3PHWQHqZLw)"><g opacity="0.68"><rect x="314.935" y="123.49" width="18.086" height="98.378" transform="matrix(0.707,0.707,-0.707,0.707,216.993,-178.51)" fill="rgb(235,235,235)"/></g><g opacity="0.6"><rect x="330.364" y="128.592" width="9.021" height="115.527" transform="matrix(0.707,0.707,-0.707,0.707,229.855,-182.21)" fill="rgb(235,235,235)"/></g></g><path d=" M 355.814 233.084 C 355.814 231.236 357.315 229.735 359.163 229.735 C 361.012 229.735 362.513 231.236 362.513 233.084 C 362.513 234.933 361.012 236.433 359.163 236.433 C 357.315 236.433 355.814 234.933 355.814 233.084 Z " fill="rgb(235,235,235)" vector-effect="non-scaling-stroke" stroke-width="1" stroke="rgb(89,88,88)" stroke-linejoin="miter" stroke-linecap="square" stroke-miterlimit="3"/></g><g id="Group"><rect x="126.5" y="277" width="80" height="35" transform="matrix(1,0,0,1,0,0)" fill="rgb(234,151,96)" vector-effect="non-scaling-stroke" stroke-width="2" stroke="rgb(89,88,88)" stroke-linejoin="miter" stroke-linecap="square" stroke-miterlimit="3"/><clipPath id="_clipPath_oYsM6bv3JVZd9SPZVhDZdYrWtWzOnEkM"><rect x="126.5" y="277" width="80" height="35" transform="matrix(1,0,0,1,0,0)" fill="rgb(234,151,96)" vector-effect="non-scaling-stroke" stroke-width="2" stroke="rgb(89,88,88)" stroke-linejoin="miter" stroke-linecap="square" stroke-miterlimit="3"/></clipPath><g clip-path="url(#_clipPath_oYsM6bv3JVZd9SPZVhDZdYrWtWzOnEkM)"><g opacity="0.11"><rect x="150.208" y="298.91" width="79" height="20" transform="matrix(0.866,-0.5,0.5,0.866,-129.039,136.24)" fill="rgb(0,0,0)"/></g></g><line x1="154" y1="294.5" x2="179" y2="294.5" vector-effect="non-scaling-stroke" stroke-width="4" stroke="rgb(89,88,88)" stroke-linejoin="miter" stroke-linecap="square" stroke-miterlimit="3"/></g><g id="Group"><rect x="126.5" y="320.5" width="80" height="35" transform="matrix(1,0,0,1,0,0)" fill="rgb(234,151,96)" vector-effect="non-scaling-stroke" stroke-width="2" stroke="rgb(89,88,88)" stroke-linejoin="miter" stroke-linecap="square" stroke-miterlimit="3"/><clipPath id="_clipPath_Ak1ur1EryBgtlC5ZYAzRmH5kwkbi0mbg"><rect x="126.5" y="320.5" width="80" height="35" transform="matrix(1,0,0,1,0,0)" fill="rgb(234,151,96)" vector-effect="non-scaling-stroke" stroke-width="2" stroke="rgb(89,88,88)" stroke-linejoin="miter" stroke-linecap="square" stroke-miterlimit="3"/></clipPath><g clip-path="url(#_clipPath_Ak1ur1EryBgtlC5ZYAzRmH5kwkbi0mbg)"><g opacity="0.11"><rect x="149.208" y="344.91" width="79" height="20" transform="matrix(0.866,-0.5,0.5,0.866,-152.173,141.903)" fill="rgb(0,0,0)"/></g></g><line x1="154" y1="338" x2="179" y2="338" vector-effect="non-scaling-stroke" stroke-width="4" stroke="rgb(89,88,88)" stroke-linejoin="miter" stroke-linecap="square" stroke-miterlimit="3"/></g><path d=" M 451.571 250.5 C 451.037 244.899 446.147 240.5 440.199 240.5 L 440.199 240.5 C 434.252 240.5 429.361 244.899 428.827 250.5 L 451.571 250.5 L 451.571 250.5 Z " fill="rgb(235,235,235)" vector-effect="non-scaling-stroke" stroke-width="2" stroke="rgb(89,88,88)" stroke-linejoin="miter" stroke-linecap="square" stroke-miterlimit="3"/><g id="Group"><path d=" M 253.068 218.703 C 255.314 218.799 257.447 219.918 259.016 221.829 C 260.608 223.766 261.5 226.362 261.5 229.065 C 261.5 231.768 260.608 234.365 259.016 236.301 C 257.447 238.212 255.314 239.332 253.068 239.427 L 253.068 240.456 C 253.068 245.999 248.567 250.5 243.024 250.5 L 238.981 250.5 C 233.235 250.5 228.571 245.836 228.571 240.09 L 228.571 216.5 L 253.068 216.5 L 253.068 218.703 Z  M 253.068 234.914 C 254.287 234.821 255.437 234.195 256.293 233.154 C 257.193 232.061 257.697 230.594 257.697 229.065 C 257.697 227.537 257.193 226.069 256.293 224.976 C 255.437 223.936 254.287 223.31 253.068 223.216 L 253.068 234.914 Z " fill="rgb(243,156,18)" vector-effect="non-scaling-stroke" stroke-width="2" stroke="rgb(89,88,88)" stroke-linejoin="miter" stroke-linecap="square" stroke-miterlimit="3"/><g style="mix-blend-mode:normal;" opacity="0.56"><path d="M 240.88 217 L 249.192 217 L 249.192 232.602 C 249.192 235.581 247.329 238 245.036 238 L 245.036 238 C 242.742 238 240.88 235.581 240.88 232.602 L 240.88 217 Z" style="stroke:none;fill:#FFFFFF;stroke-miterlimit:10;"/></g><rect x="228.571" y="223.399" width="24.497" height="5.667" transform="matrix(1,0,0,1,0,0)" fill="rgb(255,255,255)" vector-effect="non-scaling-stroke" stroke-width="2" stroke="rgb(89,88,88)" stroke-linejoin="miter" stroke-linecap="square" stroke-miterlimit="3"/></g><g id="Group"><path d=" M 262.63 238 C 262.63 231.101 266.936 225.5 272.239 225.5 C 277.543 225.5 281.848 231.101 281.848 238 C 281.848 244.899 277.543 250.5 272.239 250.5 C 266.936 250.5 262.63 244.899 262.63 238 Z " fill="rgb(241,196,15)" vector-effect="non-scaling-stroke" stroke-width="2" stroke="rgb(89,88,88)" stroke-linejoin="miter" stroke-linecap="square" stroke-miterlimit="3"/><path d=" M 282.977 236.382 C 282.979 236.431 282.979 236.48 282.979 236.529 C 282.979 244.24 278.167 250.5 272.239 250.5 C 266.312 250.5 261.5 244.24 261.5 236.529 C 261.5 236.48 261.5 236.431 261.502 236.382 L 282.977 236.382 L 282.977 236.382 Z " fill="rgb(255,255,255)" vector-effect="non-scaling-stroke" stroke-width="2" stroke="rgb(89,88,88)" stroke-linejoin="miter" stroke-linecap="square" stroke-miterlimit="3"/></g><g id="Group"/><g id="Group"/><g id="Group"><line x1="120.444" y1="190.333" x2="153.111" y2="240.778" vector-effect="non-scaling-stroke" stroke-width="4" stroke="rgb(89,88,88)" stroke-linejoin="miter" stroke-linecap="square" stroke-miterlimit="3"/><line x1="120.444" y1="188.556" x2="157.222" y2="153" vector-effect="non-scaling-stroke" stroke-width="4" stroke="rgb(89,88,88)" stroke-linejoin="miter" stroke-linecap="square" stroke-miterlimit="3"/><path d=" M 148.889 234.778 Q 162.466 216.3 134.667 211.667 Q 113.333 208.111 119.556 188.556 Q 130.222 150.778 148.889 150.333 Q 167.556 149.889 169.333 150.333" fill="none" vector-effect="non-scaling-stroke" stroke-width="1" stroke="rgb(108,108,108)" stroke-linejoin="miter" stroke-linecap="square" stroke-miterlimit="3"/><path d=" M 143.556 239.222 C 143.556 235.543 146.543 232.556 150.222 232.556 C 153.902 232.556 156.889 235.543 156.889 239.222 C 156.889 242.902 153.902 245.889 150.222 245.889 C 146.543 245.889 143.556 242.902 143.556 239.222 Z " fill="rgb(52,152,219)" vector-effect="non-scaling-stroke" stroke-width="2" stroke="rgb(89,88,88)" stroke-linejoin="miter" stroke-linecap="square" stroke-miterlimit="3"/><path d=" M 116 187.667 C 116 185.214 117.991 183.222 120.444 183.222 C 122.897 183.222 124.889 185.214 124.889 187.667 C 124.889 190.12 122.897 192.111 120.444 192.111 C 117.991 192.111 116 190.12 116 187.667 Z " fill="rgb(235,235,235)" vector-effect="non-scaling-stroke" stroke-width="2" stroke="rgb(89,88,88)" stroke-linejoin="miter" stroke-linecap="square" stroke-miterlimit="3"/><path d="M 138.222 239.222 L 162.222 239.222 C 167.619 239.222 172 243.603 172 249 L 172 249 L 128.444 249 L 128.444 249 C 128.444 243.603 132.826 239.222 138.222 239.222 Z" style="stroke:none;fill:#3498DB;stroke-linecap:square;stroke-miterlimit:3;"/><path d="M 138.222 239.222 L 162.222 239.222 C 167.619 239.222 172 243.603 172 249 L 172 249 L 128.444 249 L 128.444 249 C 128.444 243.603 132.826 239.222 138.222 239.222 Z" style="fill:none;stroke:#595858;stroke-width:2;stroke-linecap:square;stroke-miterlimit:3;"/><path d=" M 160.023 157.372 C 158.009 156.832 156.812 154.759 157.352 152.744 C 157.891 150.73 159.965 149.533 161.979 150.073 C 163.993 150.612 165.19 152.686 164.651 154.7 C 164.111 156.714 162.038 157.911 160.023 157.372 Z " fill="rgb(235,235,235)" vector-effect="non-scaling-stroke" stroke-width="2" stroke="rgb(89,88,88)" stroke-linejoin="miter" stroke-linecap="square" stroke-miterlimit="3"/><path d=" M 174.026 162.368 C 171.371 161.657 169.793 158.924 170.504 156.269 C 171.216 153.613 173.949 152.035 176.604 152.747 C 179.259 153.458 180.837 156.192 180.126 158.847 C 179.414 161.502 176.681 163.08 174.026 162.368 Z " fill="rgb(241,196,15)" vector-effect="non-scaling-stroke" stroke-width="2" stroke="rgb(89,88,88)" stroke-linejoin="miter" stroke-linecap="square" stroke-miterlimit="3"/><path d="M 158.836 156.495 L 160.512 150.238 C 161.522 146.472 165.399 144.233 169.166 145.242 L 177.982 147.604 L 172.648 167.511 L 163.832 165.149 C 160.065 164.139 157.827 160.262 158.836 156.495 Z" style="stroke:none;fill:#3498DB;stroke-linecap:square;stroke-miterlimit:3;"/><path d="M 158.836 156.495 L 160.512 150.238 C 161.522 146.472 165.399 144.233 169.166 145.242 L 177.982 147.604 L 172.648 167.511 L 163.832 165.149 C 160.065 164.139 157.827 160.262 158.836 156.495 Z" style="fill:none;stroke:#595858;stroke-width:2;stroke-linecap:square;stroke-miterlimit:3;"/><clipPath id="_clipPath_LgzxeSqPCMJpfMSpbZ5BE2an5lddLkuJ"><path d="M 158.836 156.495 L 160.512 150.238 C 161.522 146.472 165.399 144.233 169.166 145.242 L 177.982 147.604 L 172.648 167.511 L 163.832 165.149 C 160.065 164.139 157.827 160.262 158.836 156.495 Z" style="stroke:black;fill:white;stroke-linecap:square;stroke-miterlimit:3;"/><path d="M 158.836 156.495 L 160.512 150.238 C 161.522 146.472 165.399 144.233 169.166 145.242 L 177.982 147.604 L 172.648 167.511 L 163.832 165.149 C 160.065 164.139 157.827 160.262 158.836 156.495 Z" style="fill:white;stroke:black;stroke-width:2;stroke-linecap:square;stroke-miterlimit:3;"/></clipPath><g clip-path="url(#_clipPath_LgzxeSqPCMJpfMSpbZ5BE2an5lddLkuJ)"><g opacity="0.56"><path d=" M 163.857 152.354 C 159.829 151.274 157.434 147.127 158.514 143.099 C 159.593 139.071 163.74 136.676 167.769 137.756 C 171.797 138.835 174.191 142.982 173.112 147.011 C 172.033 151.039 167.886 153.433 163.857 152.354 Z " fill="rgb(255,255,255)"/></g></g><line x1="167.956" y1="166.254" x2="169.645" y2="159.95" vector-effect="non-scaling-stroke" stroke-width="2" stroke="rgb(89,88,88)" stroke-linejoin="miter" stroke-linecap="square" stroke-miterlimit="3"/><path d=" M 119.429 187.667 C 119.429 187.176 119.884 186.778 120.444 186.778 C 121.005 186.778 121.46 187.176 121.46 187.667 C 121.46 188.157 121.005 188.556 120.444 188.556 C 119.884 188.556 119.429 188.157 119.429 187.667 Z " fill="rgb(112,112,112)"/></g><line x1="414.5" y1="261.5" x2="414.5" y2="270.5" vector-effect="non-scaling-stroke" stroke-width="2" stroke="rgb(89,88,88)" stroke-linejoin="miter" stroke-linecap="square" stroke-miterlimit="3"/><line x1="419.5" y1="261.5" x2="419.5" y2="268.167" vector-effect="non-scaling-stroke" stroke-width="2" stroke="rgb(89,88,88)" stroke-linejoin="miter" stroke-linecap="square" stroke-miterlimit="3"/><rect x="178.571" y="238" width="44.929" height="10.91" transform="matrix(1,0,0,1,0,0)" fill="rgb(255,255,255)" vector-effect="non-scaling-stroke" stroke-width="2" stroke="rgb(89,88,88)" stroke-linejoin="miter" stroke-linecap="square" stroke-miterlimit="3"/></g></svg>